<?xml version="1.0" encoding="iso-8859-1"?>
<!-- Generator: Adobe Illustrator 16.0.0, SVG Export Plug-In . SVG Version: 6.00 Build 0)  -->
<!DOCTYPE svg PUBLIC "-//W3C//DTD SVG 1.1//EN" "http://www.w3.org/Graphics/SVG/1.1/DTD/svg11.dtd">
<svg version="1.1" id="Livello_1" xmlns="http://www.w3.org/2000/svg" xmlns:xlink="http://www.w3.org/1999/xlink" x="0px" y="0px"
	 width="280.207px" height="269.416px" viewBox="0 0 280.207 269.416" style="enable-background:new 0 0 280.207 269.416;"
	 xml:space="preserve">
<g>
	<g>
		<rect x="250.892" y="149.857" style="fill:#010202;" width="28.659" height="0.671"/>
		<rect x="214.173" y="149.857" style="fill:#010202;" width="28.659" height="0.671"/>
		<rect x="206.115" y="149.857" style="fill:#010202;" width="2.688" height="0.671"/>
	</g>
	<g>
		<path style="fill:#2E72B8;stroke:#2E72B8;stroke-width:2.2191;stroke-miterlimit:10;" d="M221.244,140.365
			c0,45.046-36.492,81.542-81.515,81.542c-45.013,0-81.52-36.496-81.52-81.542c0-44.991,36.507-81.496,81.52-81.496
			C184.752,58.869,221.244,95.374,221.244,140.365z"/>
		<path style="fill:#FFFFFF;" d="M208.296,140.365c0,37.882-30.708,68.578-68.566,68.578c-37.888,0-68.58-30.695-68.58-68.578
			c0-37.838,30.692-68.546,68.58-68.546C177.588,71.818,208.296,102.527,208.296,140.365z"/>
		<path style="fill:#2E72B8;stroke:#2E72B8;stroke-width:2.2191;stroke-miterlimit:10;" d="M193.331,140.365
			c0,29.617-23.994,53.604-53.602,53.604c-29.588,0-53.583-23.987-53.583-53.604c0-29.573,23.995-53.558,53.583-53.558
			C169.337,86.807,193.331,110.792,193.331,140.365z"/>
		<path style="fill:#FFFFFF;" d="M176.751,140.365c0,20.481-16.561,37.048-37.021,37.048s-37.04-16.566-37.04-37.048
			c0-20.414,16.579-37.016,37.04-37.016S176.751,119.951,176.751,140.365z"/>
		<path style="fill:#F7A72C;" d="M158.207,140.365c0,10.213-8.277,18.489-18.478,18.489c-10.202,0-18.467-8.276-18.467-18.489
			c0-10.177,8.265-18.444,18.467-18.444C149.93,121.92,158.207,130.188,158.207,140.365z"/>
		<g>
			<g>
				<polygon style="fill:#F7A72C;" points="180.578,96.603 178.106,84.327 196.718,65.696 199.194,77.974 				"/>
				<polygon style="fill:#F7A72C;" points="183.105,99.104 195.393,101.6 213.988,82.981 201.723,80.503 				"/>
			</g>
			<path style="fill:#010202;" d="M141.724,141.463c-0.953,0.975-2.507,0.975-3.479,0l0,0c-0.975-0.972-0.975-2.524,0-3.485
				l63.71-63.724c0.974-0.951,2.55-0.951,3.502,0l0,0c0.972,0.96,0.972,2.528,0,3.5L141.724,141.463z"/>
		</g>
	</g>
	<g>
		<path style="fill:#7B5C81;" d="M100.853,216.36c0,13.365-10.835,24.195-24.192,24.195c-13.366,0-24.196-10.83-24.196-24.195
			c0-13.35,10.83-24.183,24.196-24.183C90.018,192.177,100.853,203.01,100.853,216.36z"/>
		<path style="fill:#FFFFFF;" d="M95.572,216.36c0,10.45-8.467,18.913-18.912,18.913c-10.438,0-18.903-8.463-18.903-18.913
			c0-10.433,8.465-18.896,18.903-18.896C87.105,197.464,95.572,205.927,95.572,216.36z"/>
		<path style="fill:#7B5C81;" d="M89.722,216.36c0,7.226-5.845,13.072-13.062,13.072c-7.219,0-13.068-5.846-13.068-13.072
			c0-7.202,5.85-13.059,13.068-13.059C83.877,203.301,89.722,209.158,89.722,216.36z"/>
		<path style="fill:#FFFFFF;" d="M83.18,216.36c0,3.604-2.921,6.524-6.52,6.524s-6.517-2.921-6.517-6.524
			c0-3.59,2.918-6.507,6.517-6.507S83.18,212.77,83.18,216.36z"/>
		<g>
			<g>
				<polygon style="fill:#F7A72C;stroke:#010202;stroke-width:1.4113;stroke-linejoin:round;stroke-miterlimit:10;" points="
					89.247,203.779 88.376,199.448 94.941,192.874 95.817,197.206 				"/>
				<polygon style="fill:#F7A72C;stroke:#010202;stroke-width:1.4113;stroke-linejoin:round;stroke-miterlimit:10;" points="
					89.451,203.628 93.784,204.508 100.347,197.938 96.019,197.065 				"/>
			</g>
			<path style="fill:#010202;" d="M77.364,216.747c-0.336,0.345-0.884,0.345-1.229,0l0,0c-0.344-0.341-0.344-0.89,0-1.229
				l22.479-22.483c0.342-0.337,0.898-0.337,1.233,0l0,0c0.345,0.337,0.345,0.891,0,1.235L77.364,216.747z"/>
		</g>
	</g>
	<g>
		<path style="fill:#231F20;" d="M22.97,84.696c0,0.184-0.01,0.337-0.028,0.462c-0.021,0.125-0.051,0.225-0.09,0.3
			c-0.039,0.076-0.085,0.13-0.138,0.163c-0.053,0.031-0.107,0.05-0.167,0.05h-3.06v3.333c0,0.067-0.017,0.125-0.05,0.173
			c-0.033,0.049-0.089,0.092-0.168,0.127c-0.079,0.039-0.183,0.065-0.313,0.084c-0.133,0.019-0.296,0.03-0.491,0.03
			c-0.197,0-0.362-0.011-0.493-0.03c-0.131-0.02-0.235-0.046-0.315-0.084c-0.078-0.035-0.136-0.078-0.172-0.127
			c-0.035-0.048-0.054-0.106-0.054-0.173v-3.333h-3.052c-0.059,0-0.111-0.019-0.162-0.05c-0.048-0.033-0.092-0.087-0.131-0.163
			c-0.04-0.075-0.072-0.175-0.094-0.3c-0.024-0.125-0.034-0.279-0.034-0.462c0-0.178,0.01-0.329,0.028-0.458
			c0.02-0.128,0.049-0.229,0.084-0.305c0.036-0.075,0.078-0.13,0.124-0.163c0.045-0.033,0.097-0.049,0.157-0.049h3.079v-3.325
			c0-0.066,0.019-0.126,0.054-0.184c0.036-0.055,0.094-0.1,0.172-0.137c0.08-0.037,0.185-0.064,0.315-0.084
			c0.131-0.019,0.296-0.028,0.493-0.028c0.195,0,0.358,0.01,0.491,0.028c0.131,0.02,0.234,0.047,0.313,0.084
			c0.079,0.037,0.135,0.082,0.168,0.137c0.033,0.058,0.05,0.117,0.05,0.184v3.325h3.089c0.052,0,0.104,0.016,0.152,0.049
			c0.05,0.033,0.093,0.088,0.128,0.163c0.036,0.076,0.063,0.177,0.085,0.305C22.96,84.367,22.97,84.518,22.97,84.696z"/>
	</g>
	<g>
		<path style="fill:#010202;" d="M16.436,188.424c0,0.183-0.01,0.337-0.029,0.461c-0.021,0.125-0.05,0.225-0.089,0.301
			c-0.038,0.075-0.085,0.129-0.137,0.163c-0.053,0.031-0.107,0.048-0.167,0.048h-3.061v3.335c0,0.065-0.017,0.124-0.049,0.171
			c-0.033,0.049-0.088,0.092-0.169,0.128c-0.079,0.037-0.183,0.066-0.315,0.084c-0.13,0.019-0.293,0.029-0.489,0.029
			c-0.198,0-0.361-0.01-0.493-0.029c-0.131-0.019-0.234-0.047-0.314-0.084c-0.078-0.036-0.136-0.079-0.174-0.128
			c-0.034-0.048-0.053-0.106-0.053-0.171v-3.335H7.846c-0.059,0-0.112-0.018-0.162-0.048c-0.049-0.034-0.094-0.088-0.131-0.163
			c-0.041-0.076-0.072-0.176-0.094-0.301c-0.025-0.125-0.035-0.279-0.035-0.461c0-0.179,0.01-0.33,0.028-0.459
			c0.02-0.128,0.049-0.229,0.084-0.304c0.036-0.076,0.078-0.131,0.124-0.163c0.045-0.033,0.098-0.05,0.158-0.05h3.078v-3.326
			c0-0.066,0.019-0.125,0.053-0.182c0.038-0.055,0.096-0.101,0.174-0.138c0.08-0.036,0.184-0.064,0.314-0.083
			c0.132-0.02,0.295-0.029,0.493-0.029c0.196,0,0.359,0.01,0.489,0.029c0.133,0.019,0.236,0.048,0.315,0.083
			c0.081,0.037,0.136,0.083,0.169,0.138c0.032,0.057,0.049,0.116,0.049,0.182v3.326h3.09c0.051,0,0.102,0.017,0.152,0.05
			c0.048,0.032,0.092,0.086,0.127,0.163c0.037,0.075,0.063,0.176,0.084,0.304C16.426,188.095,16.436,188.246,16.436,188.424z"/>
	</g>
	<g>
		<rect x="237.799" y="221.823" style="fill:#010202;" width="34.032" height="1.12"/>
		<rect x="237.799" y="218.242" style="fill:#010202;" width="22.391" height="1.118"/>
	</g>
	<g>
		<rect x="7.715" y="211.147" style="fill:#010202;" width="34.033" height="1.12"/>
		<rect x="19.358" y="214.729" style="fill:#010202;" width="22.39" height="1.119"/>
	</g>
	<g>
		<rect x="191.683" y="213.842" style="fill:#010202;" width="11.162" height="1.119"/>
		<rect x="195.501" y="217.425" style="fill:#010202;" width="7.344" height="1.119"/>
	</g>
	<g>
		<path style="fill:#010202;" d="M238.593,88.82h-12.078c-0.518,0-0.939-0.42-0.939-0.938c0-0.52,0.422-0.939,0.939-0.939h12.059
			c0.52,0,0.949,0.42,0.949,0.939C239.522,88.4,239.112,88.82,238.593,88.82z"/>
	</g>
	<g>

			<rect x="218.636" y="88.755" style="fill:#2E72B8;stroke:#2E72B8;stroke-width:2.2191;stroke-miterlimit:10;" width="27.842" height="7.881"/>
	</g>
	<g id="XMLID_2_">
		<g>
			<path style="fill:#2E72B8;stroke:#2E72B8;stroke-width:2.2191;stroke-miterlimit:10;" d="M12.193,108.933
				c0.872-1.46,2.029-2.773,3.453-3.834l-0.019,0.012l-0.764-3.412l3.232-1.552l2.185,2.728l-0.021,0.012
				c1.712-0.448,3.461-0.538,5.146-0.296l1.872-2.942l3.378,1.187l-0.381,3.459c1.467,0.865,2.782,2.025,3.844,3.434l3.394-0.762
				l1.557,3.238l-2.72,2.171c0.446,1.714,0.529,3.458,0.289,5.149l2.936,1.859l-1.185,3.387l-3.462-0.382
				c-0.862,1.467-2.02,2.782-3.438,3.844l0.759,3.388l-3.232,1.553l-2.169-2.711c-1.713,0.442-3.465,0.521-5.151,0.28l-1.87,2.944
				l-3.383-1.189l0.386-3.469c-1.464-0.864-2.773-2.028-3.834-3.436l-3.401,0.764l-1.553-3.236l2.723-2.177
				c-0.438-1.707-0.516-3.455-0.275-5.137l-2.949-1.87l1.185-3.387L12.193,108.933z M27.974,113.546
				c-1.174-2.439-4.096-3.459-6.533-2.291c-2.44,1.172-3.466,4.089-2.295,6.529s4.096,3.47,6.533,2.301
				C28.118,118.915,29.146,115.983,27.974,113.546z"/>
		</g>
		<g>

				<path style="fill:none;stroke:#010202;stroke-width:1.4113;stroke-linecap:round;stroke-linejoin:round;stroke-miterlimit:10;" d="
				M12.193,108.933c0.003,0.008-0.004,0.011-0.004,0.011"/>

				<path style="fill:none;stroke:#010202;stroke-width:1.4113;stroke-linecap:round;stroke-linejoin:round;stroke-miterlimit:10;" d="
				M12.193,108.933l-3.47-0.384l-1.185,3.387l2.949,1.87c-0.24,1.682-0.162,3.43,0.275,5.137l-2.723,2.177l1.553,3.236l3.401-0.764
				c1.061,1.407,2.37,2.572,3.834,3.436l-0.386,3.469l3.383,1.189l1.87-2.944c1.687,0.241,3.438,0.162,5.151-0.28l2.169,2.711
				l3.232-1.553l-0.759-3.388c1.418-1.062,2.575-2.377,3.438-3.844l3.462,0.382l1.185-3.387l-2.936-1.859
				c0.24-1.691,0.157-3.435-0.289-5.149l2.72-2.171l-1.557-3.238l-3.394,0.762c-1.062-1.409-2.377-2.569-3.844-3.434l0.381-3.459
				l-3.378-1.187l-1.872,2.942c-1.685-0.242-3.434-0.152-5.146,0.296l0.021-0.012l-2.185-2.728l-3.232,1.552l0.764,3.412
				l0.019-0.012C14.223,106.16,13.065,107.472,12.193,108.933z"/>
			<path style="fill:none;stroke:#010202;stroke-width:1.4113;stroke-miterlimit:10;" d="M19.146,117.785
				c-1.171-2.439-0.146-5.356,2.295-6.529c2.438-1.169,5.359-0.149,6.533,2.291c1.172,2.437,0.145,5.368-2.295,6.539
				C23.241,121.254,20.316,120.224,19.146,117.785z"/>

				<path style="fill:none;stroke:#010202;stroke-width:1.4113;stroke-linecap:round;stroke-linejoin:round;stroke-miterlimit:10;" d="
				M15.122,119.718c-1.12-2.331-1.192-4.891-0.392-7.151c0.79-2.265,2.444-4.218,4.775-5.337"/>
		</g>
	</g>
	<g>

			<line style="fill:none;stroke:#010202;stroke-width:1.4113;stroke-linecap:round;stroke-linejoin:round;stroke-miterlimit:10;" x1="10.021" y1="152.687" x2="10.021" y2="154.942"/>

			<line style="fill:none;stroke:#010202;stroke-width:1.4113;stroke-linecap:round;stroke-linejoin:round;stroke-miterlimit:10;" x1="5.363" y1="153.936" x2="6.49" y2="155.889"/>

			<line style="fill:none;stroke:#010202;stroke-width:1.4113;stroke-linecap:round;stroke-linejoin:round;stroke-miterlimit:10;" x1="1.952" y1="157.346" x2="3.905" y2="158.473"/>

			<line style="fill:none;stroke:#010202;stroke-width:1.4113;stroke-linecap:round;stroke-linejoin:round;stroke-miterlimit:10;" x1="0.705" y1="162.005" x2="2.959" y2="162.005"/>

			<line style="fill:none;stroke:#010202;stroke-width:1.4113;stroke-linecap:round;stroke-linejoin:round;stroke-miterlimit:10;" x1="1.952" y1="166.662" x2="3.905" y2="165.535"/>

			<line style="fill:none;stroke:#010202;stroke-width:1.4113;stroke-linecap:round;stroke-linejoin:round;stroke-miterlimit:10;" x1="5.363" y1="170.073" x2="6.49" y2="168.122"/>

			<line style="fill:none;stroke:#010202;stroke-width:1.4113;stroke-linecap:round;stroke-linejoin:round;stroke-miterlimit:10;" x1="10.021" y1="171.322" x2="10.021" y2="169.067"/>

			<line style="fill:none;stroke:#010202;stroke-width:1.4113;stroke-linecap:round;stroke-linejoin:round;stroke-miterlimit:10;" x1="14.68" y1="170.073" x2="13.554" y2="168.122"/>

			<line style="fill:none;stroke:#010202;stroke-width:1.4113;stroke-linecap:round;stroke-linejoin:round;stroke-miterlimit:10;" x1="18.091" y1="166.662" x2="16.138" y2="165.535"/>

			<line style="fill:none;stroke:#010202;stroke-width:1.4113;stroke-linecap:round;stroke-linejoin:round;stroke-miterlimit:10;" x1="19.34" y1="162.005" x2="17.084" y2="162.005"/>

			<line style="fill:none;stroke:#010202;stroke-width:1.4113;stroke-linecap:round;stroke-linejoin:round;stroke-miterlimit:10;" x1="18.091" y1="157.346" x2="16.138" y2="158.473"/>

			<line style="fill:none;stroke:#010202;stroke-width:1.4113;stroke-linecap:round;stroke-linejoin:round;stroke-miterlimit:10;" x1="14.68" y1="153.936" x2="13.554" y2="155.889"/>

			<polyline style="fill:none;stroke:#010202;stroke-width:1.4113;stroke-linecap:round;stroke-linejoin:round;stroke-miterlimit:10;" points="
			10.021,156.75 10.021,162.005 6.92,164.187 		"/>
		<circle style="fill:#010202;stroke:#010202;stroke-width:1.4113;stroke-miterlimit:10;" cx="10.021" cy="162.005" r="0.646"/>
	</g>
	<g>
		<path style="fill:#F49619;" d="M261.37,82.994c-0.503,0-0.979-0.208-1.328-0.571l-3.01-3.152
			c-0.698-0.731-0.666-1.891,0.064-2.589c0.736-0.697,1.894-0.673,2.59,0.059l1.575,1.656l5.32-6.482
			c0.641-0.783,1.796-0.9,2.577-0.256c0.786,0.642,0.895,1.796,0.252,2.578l-6.628,8.084c-0.333,0.408-0.824,0.649-1.344,0.664
			C261.415,82.994,261.392,82.994,261.37,82.994L261.37,82.994z"/>
	</g>
	<g>
		<rect x="1.926" y="135.156" style="fill:#010202;" width="28.659" height="0.671"/>
		<rect x="38.646" y="135.156" style="fill:#010202;" width="28.657" height="0.671"/>
		<rect x="72.677" y="135.156" style="fill:#010202;" width="2.687" height="0.671"/>
	</g>
	<g>
		<rect x="48.339" y="144.957" style="fill:#010202;" width="28.657" height="0.673"/>
		<rect x="11.62" y="144.957" style="fill:#010202;" width="28.657" height="0.673"/>
		<rect x="3.56" y="144.957" style="fill:#010202;" width="2.688" height="0.673"/>
	</g>
	<g>
		<rect x="214.281" y="105.753" style="fill:#010202;" width="13.548" height="0.671"/>
		<rect x="231.639" y="105.753" style="fill:#010202;" width="13.546" height="0.671"/>
		<rect x="247.725" y="105.753" style="fill:#010202;" width="1.271" height="0.671"/>
	</g>
	<g>
		<rect x="93.627" y="125.389" style="fill:#010202;" width="1.82" height="1.936"/>
		<rect x="89.315" y="125.389" style="fill:#010202;" width="1.821" height="1.936"/>
		<rect x="85.006" y="125.389" style="fill:#010202;" width="1.821" height="1.936"/>
		<rect x="80.695" y="125.389" style="fill:#010202;" width="1.82" height="1.936"/>
		<rect x="76.384" y="125.389" style="fill:#010202;" width="1.822" height="1.936"/>
		<rect x="72.075" y="125.389" style="fill:#010202;" width="1.822" height="1.936"/>
		<rect x="67.765" y="125.389" style="fill:#010202;" width="1.82" height="1.936"/>
		<rect x="63.455" y="125.389" style="fill:#010202;" width="1.82" height="1.936"/>
		<rect x="59.144" y="125.389" style="fill:#010202;" width="1.822" height="1.936"/>
		<rect x="54.833" y="125.389" style="fill:#010202;" width="1.82" height="1.936"/>
		<rect x="50.524" y="125.389" style="fill:#010202;" width="1.819" height="1.936"/>
		<rect x="46.213" y="125.389" style="fill:#010202;" width="1.82" height="1.936"/>
		<rect x="41.903" y="125.389" style="fill:#010202;" width="1.82" height="1.936"/>
	</g>
	<g>
		<rect x="177.159" y="230.235" style="fill:#010202;" width="1.822" height="1.935"/>
		<rect x="172.85" y="230.235" style="fill:#010202;" width="1.82" height="1.935"/>
		<rect x="168.541" y="230.235" style="fill:#010202;" width="1.82" height="1.935"/>
		<rect x="164.229" y="230.235" style="fill:#010202;" width="1.821" height="1.935"/>
		<rect x="159.917" y="230.235" style="fill:#010202;" width="1.822" height="1.935"/>
		<rect x="155.607" y="230.235" style="fill:#010202;" width="1.822" height="1.935"/>
		<rect x="151.297" y="230.235" style="fill:#010202;" width="1.822" height="1.935"/>
		<rect x="146.989" y="230.235" style="fill:#010202;" width="1.818" height="1.935"/>
		<rect x="142.677" y="230.235" style="fill:#010202;" width="1.822" height="1.935"/>
		<rect x="138.367" y="230.235" style="fill:#010202;" width="1.821" height="1.935"/>
		<rect x="134.057" y="230.235" style="fill:#010202;" width="1.821" height="1.935"/>
		<rect x="129.745" y="230.235" style="fill:#010202;" width="1.821" height="1.935"/>
		<rect x="125.436" y="230.235" style="fill:#010202;" width="1.821" height="1.935"/>
	</g>
	<g>
		<rect x="279.181" y="96.803" style="fill:#010202;" width="1.026" height="1.936"/>
		<rect x="276.753" y="96.803" style="fill:#010202;" width="1.025" height="1.936"/>
		<rect x="274.323" y="96.803" style="fill:#010202;" width="1.026" height="1.936"/>
		<rect x="271.894" y="96.803" style="fill:#010202;" width="1.027" height="1.936"/>
		<rect x="269.465" y="96.803" style="fill:#010202;" width="1.026" height="1.936"/>
		<rect x="267.036" y="96.803" style="fill:#010202;" width="1.027" height="1.936"/>
		<rect x="264.606" y="96.803" style="fill:#010202;" width="1.027" height="1.936"/>
		<rect x="262.181" y="96.803" style="fill:#010202;" width="1.024" height="1.936"/>
		<rect x="259.75" y="96.803" style="fill:#010202;" width="1.026" height="1.936"/>
		<rect x="257.32" y="96.803" style="fill:#010202;" width="1.025" height="1.936"/>
		<rect x="254.893" y="96.803" style="fill:#010202;" width="1.028" height="1.936"/>
		<rect x="252.462" y="96.803" style="fill:#010202;" width="1.027" height="1.936"/>
		<rect x="250.036" y="96.803" style="fill:#010202;" width="1.024" height="1.936"/>
	</g>
	<g>
		<rect x="232.942" y="168.828" style="fill:#010202;" width="1.027" height="1.936"/>
		<rect x="230.513" y="168.828" style="fill:#010202;" width="1.026" height="1.936"/>
		<rect x="228.085" y="168.828" style="fill:#010202;" width="1.026" height="1.936"/>
		<rect x="225.654" y="168.828" style="fill:#010202;" width="1.027" height="1.936"/>
		<rect x="223.227" y="168.828" style="fill:#010202;" width="1.026" height="1.936"/>
		<rect x="220.797" y="168.828" style="fill:#010202;" width="1.026" height="1.936"/>
		<rect x="218.368" y="168.828" style="fill:#010202;" width="1.027" height="1.936"/>
		<rect x="215.941" y="168.828" style="fill:#010202;" width="1.025" height="1.936"/>
		<rect x="213.511" y="168.828" style="fill:#010202;" width="1.026" height="1.936"/>
		<rect x="211.082" y="168.828" style="fill:#010202;" width="1.026" height="1.936"/>
		<rect x="208.653" y="168.828" style="fill:#010202;" width="1.027" height="1.936"/>
		<rect x="206.224" y="168.828" style="fill:#010202;" width="1.027" height="1.936"/>
		<rect x="203.796" y="168.828" style="fill:#010202;" width="1.026" height="1.936"/>
	</g>
	<g>
		<rect x="195.609" y="44.531" style="fill:#010202;" width="1.026" height="1.935"/>
		<rect x="193.182" y="44.531" style="fill:#010202;" width="1.027" height="1.935"/>
		<rect x="190.754" y="44.531" style="fill:#010202;" width="1.024" height="1.935"/>
		<rect x="188.323" y="44.531" style="fill:#010202;" width="1.026" height="1.935"/>
		<rect x="185.896" y="44.531" style="fill:#010202;" width="1.025" height="1.935"/>
		<rect x="183.465" y="44.531" style="fill:#010202;" width="1.027" height="1.935"/>
		<rect x="181.036" y="44.531" style="fill:#010202;" width="1.028" height="1.935"/>
		<rect x="178.609" y="44.531" style="fill:#010202;" width="1.025" height="1.935"/>
		<rect x="176.179" y="44.531" style="fill:#010202;" width="1.026" height="1.935"/>
		<rect x="173.75" y="44.531" style="fill:#010202;" width="1.027" height="1.935"/>
		<rect x="171.323" y="44.531" style="fill:#010202;" width="1.024" height="1.935"/>
		<rect x="168.894" y="44.531" style="fill:#010202;" width="1.025" height="1.935"/>
		<rect x="166.465" y="44.531" style="fill:#010202;" width="1.025" height="1.935"/>
	</g>
	<g>
		<rect x="123.746" y="52.183" style="fill:#010202;" width="1.665" height="1.936"/>
		<rect x="119.806" y="52.183" style="fill:#010202;" width="1.664" height="1.936"/>
		<rect x="115.864" y="52.183" style="fill:#010202;" width="1.664" height="1.936"/>
		<rect x="111.923" y="52.183" style="fill:#010202;" width="1.666" height="1.936"/>
		<rect x="107.981" y="52.183" style="fill:#010202;" width="1.665" height="1.936"/>
		<rect x="104.04" y="52.183" style="fill:#010202;" width="1.665" height="1.936"/>
		<rect x="100.1" y="52.183" style="fill:#010202;" width="1.666" height="1.936"/>
		<rect x="96.159" y="52.183" style="fill:#010202;" width="1.665" height="1.936"/>
		<rect x="92.216" y="52.183" style="fill:#010202;" width="1.665" height="1.936"/>
		<rect x="88.276" y="52.183" style="fill:#010202;" width="1.666" height="1.936"/>
		<rect x="84.336" y="52.183" style="fill:#010202;" width="1.665" height="1.936"/>
		<rect x="80.395" y="52.183" style="fill:#010202;" width="1.664" height="1.936"/>
		<rect x="76.452" y="52.183" style="fill:#010202;" width="1.666" height="1.936"/>
	</g>
	<g>
		<rect x="69.445" y="63.058" style="fill:#010202;" width="34.032" height="1.12"/>
		<rect x="69.445" y="59.476" style="fill:#010202;" width="22.388" height="1.119"/>
	</g>
	<g>
		<path style="fill:#010202;" d="M195.728,232.027c0,0.183-0.009,0.337-0.029,0.461c-0.021,0.125-0.051,0.226-0.089,0.3
			c-0.04,0.076-0.085,0.13-0.137,0.162c-0.053,0.032-0.109,0.05-0.169,0.05h-3.059v3.334c0,0.066-0.017,0.124-0.05,0.172
			c-0.033,0.05-0.089,0.092-0.168,0.128c-0.079,0.038-0.183,0.065-0.315,0.084c-0.131,0.018-0.294,0.029-0.492,0.029
			c-0.194,0-0.36-0.011-0.49-0.029c-0.131-0.02-0.236-0.047-0.314-0.084c-0.079-0.036-0.138-0.078-0.174-0.128
			c-0.037-0.048-0.052-0.106-0.052-0.172V233h-3.052c-0.058,0-0.112-0.018-0.161-0.05c-0.05-0.032-0.095-0.086-0.134-0.162
			c-0.039-0.075-0.07-0.175-0.094-0.3c-0.024-0.124-0.034-0.279-0.034-0.461c0-0.178,0.01-0.33,0.03-0.459
			c0.019-0.127,0.046-0.229,0.082-0.304c0.037-0.076,0.079-0.13,0.125-0.163c0.045-0.034,0.097-0.05,0.156-0.05h3.081v-3.325
			c0-0.066,0.015-0.125,0.052-0.183c0.036-0.054,0.095-0.1,0.174-0.137c0.078-0.037,0.184-0.064,0.314-0.083
			c0.13-0.02,0.296-0.03,0.49-0.03c0.198,0,0.361,0.01,0.492,0.03c0.133,0.019,0.236,0.047,0.315,0.083s0.135,0.083,0.168,0.137
			c0.033,0.058,0.05,0.117,0.05,0.183v3.325h3.088c0.053,0,0.104,0.016,0.153,0.05c0.049,0.032,0.092,0.087,0.127,0.163
			c0.037,0.075,0.064,0.177,0.085,0.304C195.719,231.697,195.728,231.849,195.728,232.027z"/>
	</g>
	<g>
		<path style="fill:#010202;" d="M191.644,58.058c0,0.183-0.011,0.338-0.029,0.462c-0.021,0.125-0.051,0.225-0.089,0.3
			c-0.041,0.076-0.085,0.13-0.138,0.162c-0.052,0.032-0.106,0.05-0.168,0.05h-3.059v3.335c0,0.066-0.019,0.123-0.05,0.172
			c-0.033,0.05-0.089,0.091-0.168,0.128c-0.079,0.038-0.183,0.065-0.315,0.084c-0.13,0.019-0.293,0.03-0.49,0.03
			s-0.362-0.011-0.492-0.03c-0.131-0.02-0.235-0.047-0.314-0.084c-0.08-0.037-0.138-0.078-0.173-0.128
			c-0.035-0.049-0.054-0.106-0.054-0.172v-3.335h-3.051c-0.059,0-0.112-0.018-0.161-0.05c-0.051-0.032-0.095-0.086-0.133-0.162
			c-0.039-0.075-0.073-0.175-0.095-0.3c-0.023-0.124-0.034-0.279-0.034-0.462c0-0.178,0.011-0.329,0.029-0.458
			c0.02-0.128,0.049-0.229,0.084-0.304c0.036-0.076,0.078-0.129,0.123-0.163c0.044-0.033,0.1-0.049,0.155-0.049h3.082v-3.326
			c0-0.066,0.019-0.125,0.054-0.183c0.035-0.054,0.093-0.101,0.173-0.137c0.079-0.037,0.184-0.065,0.314-0.083
			c0.13-0.02,0.295-0.03,0.492-0.03s0.36,0.01,0.49,0.03c0.133,0.019,0.236,0.047,0.315,0.083c0.079,0.036,0.135,0.083,0.168,0.137
			c0.031,0.057,0.05,0.117,0.05,0.183v3.326h3.088c0.053,0,0.104,0.016,0.153,0.049c0.05,0.034,0.093,0.087,0.128,0.163
			c0.035,0.075,0.063,0.176,0.084,0.304C191.633,57.729,191.644,57.88,191.644,58.058z"/>
	</g>
	<g>
		<path style="fill:#010202;" d="M209.367,35.189c0,0.183-0.009,0.337-0.026,0.462c-0.023,0.125-0.053,0.224-0.091,0.3
			c-0.041,0.076-0.085,0.129-0.138,0.162c-0.053,0.032-0.107,0.05-0.166,0.05h-3.061v3.334c0,0.067-0.018,0.124-0.05,0.173
			c-0.034,0.049-0.09,0.091-0.169,0.127c-0.078,0.038-0.182,0.066-0.315,0.085c-0.129,0.019-0.292,0.03-0.49,0.03
			c-0.196,0-0.362-0.011-0.491-0.03c-0.13-0.02-0.236-0.048-0.315-0.085c-0.079-0.036-0.136-0.078-0.173-0.127
			c-0.035-0.049-0.053-0.106-0.053-0.173v-3.334h-3.052c-0.058,0-0.111-0.018-0.161-0.05c-0.05-0.033-0.094-0.086-0.133-0.162
			c-0.039-0.076-0.071-0.175-0.093-0.3c-0.024-0.125-0.034-0.279-0.034-0.462c0-0.178,0.01-0.33,0.028-0.458
			c0.02-0.128,0.049-0.229,0.084-0.304c0.037-0.076,0.077-0.13,0.123-0.163c0.044-0.034,0.099-0.049,0.157-0.049h3.08V30.89
			c0-0.066,0.018-0.127,0.053-0.183c0.037-0.056,0.094-0.102,0.173-0.137c0.079-0.037,0.186-0.065,0.315-0.084
			c0.129-0.02,0.295-0.03,0.491-0.03c0.198,0,0.361,0.01,0.49,0.03c0.134,0.019,0.237,0.047,0.315,0.084
			c0.079,0.035,0.135,0.082,0.169,0.137c0.032,0.056,0.05,0.117,0.05,0.183v3.325h3.088c0.053,0,0.104,0.015,0.154,0.049
			c0.047,0.033,0.092,0.087,0.127,0.163c0.036,0.075,0.062,0.176,0.086,0.304C209.358,34.859,209.367,35.011,209.367,35.189z"/>
	</g>
	<g>
		<polygon style="fill:#F49619;" points="152.679,28.854 127.76,28.854 127.76,52.559 133.846,52.559 132.468,60.629 138.59,52.559
			152.679,52.559 		"/>
		<g>
			<path style="fill:#010202;" d="M138.991,44.243c-0.342,0-0.666-0.142-0.9-0.387l-2.044-2.139
				c-0.472-0.497-0.452-1.283,0.044-1.759c0.5-0.472,1.285-0.456,1.756,0.041l1.072,1.124l3.609-4.399
				c0.436-0.532,1.219-0.61,1.75-0.174c0.531,0.436,0.606,1.219,0.172,1.749l-4.498,5.487c-0.228,0.276-0.562,0.441-0.912,0.451
				C139.023,44.243,139.005,44.243,138.991,44.243L138.991,44.243z"/>
		</g>
	</g>
	<g>
		<path style="fill:#F39124;" d="M212.252,217.012h-0.118c1.348,1.617,2.328,3.55,2.837,5.665h15.548
			c0.498-2.068,1.451-3.961,2.757-5.554c3.23-2.881,5.266-7.067,5.27-11.738c0.005-8.68-7.033-15.722-15.711-15.726
			c-8.684-0.002-15.726,7.034-15.727,15.713C207.106,209.985,209.087,214.137,212.252,217.012z"/>
		<g>
			<polygon style="fill:#010202;" points="217.938,229.155 219.305,231.531 226.339,231.536 227.717,229.155 			"/>
		</g>
		<g>

				<line style="fill:none;stroke:#010202;stroke-width:1.4113;stroke-miterlimit:10;" x1="215.97" y1="222.86" x2="229.684" y2="222.86"/>

				<line style="fill:none;stroke:#010202;stroke-width:1.4113;stroke-miterlimit:10;" x1="215.97" y1="227.238" x2="229.684" y2="227.238"/>
		</g>
	</g>
	<g>
		<g>
			<defs>
				<path id="SVGID_1_" d="M242.65,154.02c-0.009,0.154-0.016,6.201-0.016,6.358v19.355c0,3.289,2.002,5.955,4.468,5.955h0.07
					c2.465,0,4.467-2.666,4.467-5.955v-25.249c0-0.157-0.005-0.311-0.015-0.465H242.65z"/>
			</defs>
			<clipPath id="SVGID_2_">
				<use xlink:href="#SVGID_1_"  style="overflow:visible;"/>
			</clipPath>
			<g style="clip-path:url(#SVGID_2_);">
				<g>
					<polygon style="fill:#F39124;" points="262.091,173.081 236.663,156.754 237.991,153.082 263.42,169.411 					"/>
				</g>
				<g>
					<polygon style="fill:#F39124;" points="259.287,180.85 233.858,164.521 235.186,160.85 260.614,177.178 					"/>
				</g>
				<g>
					<polygon style="fill:#F39124;" points="256.484,188.616 231.053,172.288 232.38,168.617 257.809,184.945 					"/>
				</g>
			</g>
		</g>
		<g>
			<path style="fill:#010202;" d="M247.137,146.483c-9.334,0-16.929-7.596-16.929-16.931c0-9.335,7.595-16.93,16.929-16.93
				c9.335,0,16.931,7.595,16.931,16.93C264.067,138.887,256.472,146.483,247.137,146.483z M247.137,115.085
				c-7.977,0-14.467,6.488-14.467,14.467c0,7.977,6.49,14.467,14.467,14.467c7.978,0,14.468-6.491,14.468-14.467
				C261.604,121.574,255.114,115.085,247.137,115.085z"/>
		</g>
		<g>
			<rect x="245.597" y="145.495" style="fill:#010202;" width="3.081" height="8.488"/>
		</g>
		<g>
			<path style="fill:#010202;" d="M247.173,186.919h-0.07c-3.142,0-5.697-3.223-5.697-7.186v-19.355c0-0.062,0.005-6.213,0.016-6.43
				l0.068-1.16h11.297l0.068,1.16c0.011,0.176,0.017,0.357,0.017,0.537v25.249C252.871,183.696,250.313,186.919,247.173,186.919z
				 M243.876,155.251c-0.005,1.729-0.009,4.803-0.009,5.126v19.355c0,2.56,1.481,4.724,3.235,4.724h0.07
				c1.755,0,3.236-2.164,3.236-4.724v-24.481H243.876z"/>
		</g>
	</g>
	<g>
		<path style="fill:#7B5C81;" d="M13.832,56.373c0-1.25,0-2.499,0-3.748c0.065-0.265,0.163-0.526,0.191-0.794
			c1.22-11.617,11.58-22.349,26.184-20.518c9.921,1.243,16.43,7.114,19.496,16.66c0.481,1.5,0.657,3.099,0.975,4.652
			c0,1.25,0,2.499,0,3.748c-0.067,0.262-0.141,0.522-0.2,0.786c-0.381,1.686-0.594,3.43-1.163,5.05
			c-3.425,9.75-12.579,15.91-23.046,15.604c-9.843-0.287-18.621-7.142-21.435-16.796C14.392,59.5,14.161,57.922,13.832,56.373z
			 M53.847,68.559c7.194-7.696,7.569-21.81-1.588-30.115c-10.227-9.275-24.151-7.04-31.572,1.696
			c-8.742,10.29-5.468,23.229,0.437,28.851c0.066-0.367,0.141-0.703,0.187-1.044c0.254-1.9,1.028-3.483,2.905-4.215
			c2.499-0.974,5.037-1.844,7.604-2.775c0.542,3.95,3.021,5.419,5.256,5.487c1.078,0.033,2.259-0.34,3.246-0.827
			c1.773-0.875,2.442-2.61,2.809-4.52c2.099,0.66,4.127,1.229,6.105,1.937c2.203,0.79,4.017,2.03,4.371,4.616
			C53.646,67.948,53.76,68.238,53.847,68.559z"/>
		<path style="fill-rule:evenodd;clip-rule:evenodd;fill:#FFFFFF;" d="M53.847,68.559c-0.087-0.321-0.2-0.611-0.241-0.91
			c-0.354-2.586-2.168-3.826-4.371-4.616c-1.979-0.708-4.007-1.277-6.105-1.937c-0.366,1.91-1.035,3.646-2.809,4.52
			c-0.987,0.487-2.168,0.86-3.246,0.827c-2.234-0.068-4.714-1.537-5.256-5.487c-2.566,0.931-5.104,1.802-7.604,2.775
			c-1.877,0.731-2.651,2.315-2.905,4.215c-0.046,0.341-0.12,0.677-0.187,1.044c-5.904-5.623-9.179-18.561-0.437-28.851
			c7.421-8.736,21.346-10.971,31.572-1.696C61.416,46.75,61.041,60.863,53.847,68.559z M45.128,48.388
			c0.015-0.162,0.021-0.263,0.032-0.363c0.264-2.074,0.498-4.168-0.482-6.121c-2.468-4.915-9.405-4.707-12.425-2.401
			c-2.438,1.863-2.79,4.386-2.594,7.16c0.056,0.8,0.445,1.691-0.594,2.242c-0.168,0.089-0.271,0.522-0.224,0.76
			c0.18,0.898,0.303,1.845,0.691,2.656c0.594,1.238,1.408,2.369,2.099,3.563c3.109,5.385,8.783,4.805,11.372,0.504
			c0.872-1.449,1.803-2.863,2.647-4.327C46.535,50.531,46.321,49.107,45.128,48.388z"/>
		<path style="fill-rule:evenodd;clip-rule:evenodd;fill:#7B5C81;" d="M45.128,48.388c1.193,0.719,1.407,2.143,0.523,3.672
			c-0.845,1.464-1.775,2.878-2.647,4.327c-2.589,4.301-8.263,4.881-11.372-0.504c-0.69-1.194-1.505-2.325-2.099-3.563
			c-0.389-0.811-0.512-1.758-0.691-2.656c-0.048-0.238,0.056-0.671,0.224-0.76c1.039-0.55,0.649-1.441,0.594-2.242
			c-0.196-2.773,0.155-5.297,2.594-7.16c3.02-2.305,9.957-2.514,12.425,2.401c0.98,1.952,0.746,4.046,0.482,6.121
			C45.148,48.125,45.143,48.226,45.128,48.388z M31.006,49.253c-0.868-0.562-1.229-0.111-1.242,0.649
			c-0.008,0.531,0.122,1.122,0.372,1.587c0.863,1.612,1.735,3.226,2.733,4.755c2.227,3.411,6.699,3.555,9.049,0.235
			c1.148-1.623,2.01-3.45,2.98-5.196c0.164-0.296,0.316-0.658,0.3-0.981c-0.022-0.418-0.14-0.885-0.38-1.211
			c-0.095-0.128-0.629,0.068-0.963,0.116c-0.129-1.327,0.974-2.822-0.455-4.051c-1.142-0.982-2.364-1.739-3.86-1.683
			c0.623,1.217,1.236,2.416,1.851,3.616c-0.085,0.046-0.169,0.093-0.253,0.139c-1.21-1.199-2.52-2.218-4.22-2.492
			c0.105,0.841,0.203,1.62,0.289,2.304c-1.376-0.852-2.616-1.712-3.938-2.415c-1.722-0.916-2.294,0.263-2.405,1.629
			C30.787,47.211,30.946,48.187,31.006,49.253z"/>
		<path style="fill-rule:evenodd;clip-rule:evenodd;fill:#FFFFFF;" d="M31.006,49.253c-0.06-1.066-0.219-2.042-0.142-2.999
			c0.111-1.367,0.684-2.545,2.405-1.629c1.321,0.703,2.562,1.563,3.938,2.415c-0.086-0.684-0.184-1.463-0.289-2.304
			c1.7,0.274,3.01,1.292,4.22,2.492c0.084-0.046,0.168-0.093,0.253-0.139c-0.614-1.2-1.228-2.399-1.851-3.616
			c1.496-0.056,2.719,0.701,3.86,1.683c1.429,1.229,0.326,2.724,0.455,4.051c0.334-0.048,0.868-0.244,0.963-0.116
			c0.24,0.326,0.357,0.793,0.38,1.211c0.017,0.323-0.136,0.685-0.3,0.981c-0.971,1.747-1.832,3.573-2.98,5.196
			c-2.35,3.32-6.822,3.176-9.049-0.235c-0.998-1.529-1.87-3.144-2.733-4.755c-0.25-0.466-0.38-1.057-0.372-1.587
			C29.776,49.142,30.138,48.691,31.006,49.253z"/>
	</g>
	<g>
		<path style="fill:#2E72B8;" d="M247.138,116.912c-6.981,0-12.641,5.659-12.641,12.641s5.659,12.641,12.641,12.641
			s12.641-5.66,12.641-12.641S254.119,116.912,247.138,116.912z M255.307,125.19c-0.334,0.289-0.481,0.565-0.486,1.023
			c-0.069,5.303-3.646,9.782-8.747,10.886c-2.731,0.591-5.37,0.235-7.844-1.119c-0.156-0.085-0.305-0.188-0.563-0.349
			c2.118,0.125,3.944-0.35,5.679-1.637c-1.757-0.245-2.977-1.061-3.593-2.681c0.531-0.031,1.036-0.062,1.708-0.102
			c-2.202-0.948-3.217-2.293-3.051-3.872c0.479,0.127,0.961,0.255,1.443,0.383c-1.496-1.534-1.912-3.208-0.98-5.268
			c2.18,2.493,4.831,3.902,8.146,4.113c-0.298-1.878,0.423-3.476,1.884-4.314c1.447-0.832,3.168-0.657,4.554,0.415
			c0.198,0.154,0.564,0.231,0.804,0.165c0.64-0.178,1.253-0.454,2.007-0.627c-0.459,0.626-0.921,1.253-1.423,1.937
			c0.542-0.129,1.1-0.261,1.657-0.393c0.036,0.035,0.072,0.07,0.109,0.104C256.18,124.304,255.777,124.787,255.307,125.19z"/>
	</g>
	<g>
		<path d="M212.439,210.874c0-3.129,0-6.257,0-9.386c0.005-0.019,0.012-0.037,0.013-0.055c0.023-0.432,0.096-0.855,0.218-1.269
			c0.459-1.544,1.383-2.73,2.763-3.557c0.769-0.459,1.604-0.724,2.496-0.801c0.077-0.007,0.154-0.017,0.231-0.025
			c3.119,0,6.239,0,9.359,0c0.099,0.009,0.197,0.018,0.296,0.028c0.514,0.054,1.015,0.164,1.496,0.351
			c1.574,0.612,2.714,1.688,3.415,3.225c0.272,0.598,0.433,1.229,0.488,1.885c0.006,0.077,0.017,0.154,0.024,0.23
			c0,3.12,0,6.24,0,9.36c-0.004,0.021-0.01,0.042-0.012,0.063c-0.018,0.166-0.03,0.332-0.053,0.497
			c-0.078,0.564-0.237,1.105-0.479,1.621c-0.634,1.359-1.632,2.358-2.99,2.994c-0.62,0.29-1.273,0.461-1.955,0.521
			c-0.077,0.007-0.154,0.017-0.231,0.025c-3.12,0-6.24,0-9.359,0c-0.021-0.004-0.042-0.01-0.063-0.013
			c-0.181-0.019-0.362-0.029-0.541-0.057c-0.493-0.076-0.971-0.21-1.429-0.407c-1.066-0.459-1.937-1.162-2.602-2.113
			c-0.609-0.872-0.965-1.839-1.061-2.9C212.458,211.018,212.448,210.946,212.439,210.874z M214.04,206.18
			c0,1.443-0.001,2.886,0,4.329c0,0.367,0.04,0.729,0.126,1.086c0.469,1.951,2.21,3.377,4.284,3.382
			c2.9,0.008,5.802,0.002,8.703,0.002c0.33,0,0.656-0.029,0.979-0.099c1.009-0.219,1.846-0.724,2.5-1.521
			c0.68-0.827,1.006-1.785,1.006-2.853c0.002-2.884,0.001-5.768,0.001-8.651c0-0.306-0.026-0.609-0.088-0.91
			c-0.209-1.028-0.715-1.882-1.521-2.55c-0.834-0.69-1.803-1.015-2.883-1.015c-2.872,0-5.745,0-8.618,0
			c-0.365,0-0.728,0.03-1.081,0.12c-1.397,0.355-2.407,1.187-3.018,2.493c-0.272,0.584-0.391,1.207-0.391,1.851
			C214.039,203.29,214.04,204.735,214.04,206.18z"/>
		<path style="fill-rule:evenodd;clip-rule:evenodd;" d="M222.838,200.579c3.084,0,5.604,2.518,5.604,5.6
			c0.001,3.09-2.521,5.605-5.619,5.604c-3.069-0.001-5.587-2.529-5.585-5.606C217.239,203.096,219.758,200.579,222.838,200.579z
			 M218.842,206.181c0.001,2.218,1.781,3.998,3.998,3.997c2.218,0,3.999-1.782,3.998-3.999c-0.002-2.22-1.78-3.998-3.999-3.997
			C220.619,202.184,218.841,203.962,218.842,206.181z"/>
		<circle style="fill-rule:evenodd;clip-rule:evenodd;" cx="228.84" cy="200.181" r="1.202"/>
	</g>
	<g>
		<path style="fill-rule:evenodd;clip-rule:evenodd;" d="M245.674,52.141c0.469,0.408,0.541,0.949,0.557,1.528
			c0.061,2.412,0.133,4.822,0.197,7.231c0.005,0.203,0.074,0.332,0.238,0.458c2.049,1.591,2.144,4.663,0.199,6.367
			c-0.161,0.141-0.235,0.278-0.229,0.497c0.082,2.498,0.154,4.995,0.229,7.493c0.003,0.161,0.01,0.329-0.016,0.488
			c-0.148,0.864-1.004,1.25-1.734,0.76c-0.281-0.191-0.545-0.443-0.74-0.72c-1.278-1.778-2.954-3.057-4.916-3.975
			c-2.427-1.135-5.001-1.504-7.655-1.496c-0.433,0.001-0.902-0.076-1.292-0.252c-0.655-0.297-0.906-0.896-0.927-1.605
			c-0.044-1.683-0.098-3.365-0.151-5.048c-0.025-0.944-0.057-1.889-0.084-2.832c-0.031-0.944,0.543-1.643,1.485-1.754
			c1.013-0.117,2.04-0.142,3.046-0.298c2.132-0.329,4.141-1.02,5.973-2.18c1.427-0.902,2.623-2.04,3.543-3.462
			c0.146-0.228,0.31-0.446,0.479-0.657c0.32-0.395,0.729-0.643,1.235-0.712C245.3,52.027,245.486,52.083,245.674,52.141z
			 M231.207,61.112c0.076,2.616,0.153,5.216,0.23,7.826c2.525-0.051,4.962,0.219,7.324,1.058c2.365,0.839,4.427,2.126,6.205,4.004
			c-0.185-6.318-0.366-12.554-0.551-18.843C240.99,59.383,236.407,60.887,231.207,61.112z"/>
		<path style="fill-rule:evenodd;clip-rule:evenodd;" d="M220.47,62.702c0.423-1.255,1.321-1.851,2.47-2.028
			c0.909-0.138,1.842-0.105,2.764-0.141c0.497-0.018,0.997-0.042,1.496-0.014c0.587,0.032,0.879,0.373,0.89,0.952
			c0.036,1.663,0.071,3.323,0.107,4.987c0.028,1.259,0.03,2.52,0.095,3.777c0.039,0.772-0.202,1.446-0.604,2.059
			c-0.466,0.708-0.53,1.456-0.379,2.247c0.104,0.544,0.237,1.085,0.366,1.623c0.148,0.627,0.153,1.227-0.251,1.78
			c-0.046,0.064,0.007,0.213,0.033,0.318c0.125,0.491,0.32,0.974,0.376,1.472c0.062,0.551-0.284,0.917-0.786,1.112
			c-0.543,0.208-1.112,0.201-1.673,0.102c-0.415-0.074-0.648-0.432-0.661-0.933c-0.041-1.455-0.079-2.911-0.118-4.366
			c-0.03-1.098-0.054-2.194-0.109-3.291c-0.016-0.285-0.103-0.578-0.213-0.843c-0.159-0.381-0.481-0.571-0.895-0.619
			c-1.763-0.198-2.669-0.998-2.828-2.746c-0.148-1.62-0.125-3.256-0.166-4.883C220.377,63.053,220.446,62.837,220.47,62.702z"/>
		<path style="fill-rule:evenodd;clip-rule:evenodd;fill:#7B5C81;" d="M231.207,61.112c5.2-0.225,9.783-1.729,13.209-5.955
			c0.185,6.29,0.366,12.525,0.551,18.843c-1.778-1.878-3.84-3.166-6.205-4.004c-2.362-0.839-4.799-1.109-7.324-1.058
			C231.36,66.328,231.283,63.728,231.207,61.112z M243.187,59.871c0.159-0.533-0.128-0.977-0.62-1.008
			c-0.361-0.023-0.587,0.183-0.74,0.486c-0.42,0.823-1.092,1.368-1.914,1.748c-1.094,0.504-2.26,0.689-3.451,0.744
			c-0.174,0.009-0.351,0.014-0.518,0.047c-0.33,0.067-0.502,0.3-0.548,0.614c-0.041,0.293,0.069,0.543,0.335,0.685
			c0.129,0.069,0.287,0.127,0.431,0.125c1.827-0.036,3.595-0.331,5.173-1.33C242.172,61.452,242.812,60.743,243.187,59.871z"/>
		<path style="fill-rule:evenodd;clip-rule:evenodd;" d="M243.187,59.871c-0.374,0.873-1.015,1.581-1.853,2.111
			c-1.578,0.999-3.346,1.293-5.173,1.33c-0.144,0.002-0.302-0.055-0.431-0.125c-0.266-0.142-0.376-0.392-0.335-0.685
			c0.046-0.314,0.218-0.547,0.548-0.614c0.167-0.033,0.344-0.039,0.518-0.047c1.191-0.055,2.357-0.24,3.451-0.744
			c0.822-0.379,1.494-0.925,1.914-1.748c0.153-0.303,0.379-0.51,0.74-0.486C243.059,58.894,243.346,59.338,243.187,59.871z"/>
	</g>
	<g>
		<path style="fill-rule:evenodd;clip-rule:evenodd;fill:#41BEDC;" d="M110.941,26.117c0.001-0.469,0.001-0.939,0.001-1.408v0
			c0,0,0,0,0,0c0.001-0.412,0.001-0.825,0.001-1.237c-0.001-0.413-0.002-0.826-0.002-1.239c0-2.9,0-5.8,0-8.701c0,0,0,0,0-0.001
			c0-2.227,0-4.453,0-6.68c0-0.676,0-1.352,0-2.028c0.02-0.049,0.02-0.099,0-0.148c0-0.312-0.001-0.624-0.002-0.935
			c-0.041-0.053-0.082-0.106-0.123-0.159c0,0,0-0.001-0.001-0.001c0.001,0,0.001,0,0.002,0.001c0.006-1.492-0.754-2.47-2.067-3.075
			c-0.92-0.316-1.852-0.505-2.84-0.504C96.345,0.018,86.779,0.019,77.214,0c-0.9-0.002-1.707,0.227-2.498,0.603l0,0
			C73.7,1.198,73.003,2.02,72.85,3.228c-0.001,0.001-0.001,0.002-0.001,0.003c-0.206,0.305-0.126,0.645-0.119,0.976
			c0,4.661,0.001,9.322,0.001,13.983c-0.004,5.435-0.011,10.869-0.009,16.303c0,0.385,0.077,0.767,0.283,1.107
			c0.337,1.036,1.005,1.765,2.014,2.18c0.019-0.032,0.04-0.057,0.06-0.085c-0.011,0.025-0.028,0.053-0.06,0.085
			c0.606,0.422,1.3,0.447,2,0.447c5.866-0.001,11.733,0.006,17.6-0.012c0.552-0.002,0.812,0.134,0.966,0.704
			c0.338,1.24,0.777,2.453,1.176,3.676c0.391,1.609,0.927,3.172,1.507,4.926c0.971-1.711,1.843-3.249,2.716-4.787c0,0,0,0,0,0
			c0.767-1.279,1.571-2.538,2.28-3.849c0.298-0.549,0.651-0.668,1.224-0.675c1.072-0.014,2.156,0.169,3.22-0.117
			c0.585-0.018,1.079-0.261,1.522-0.626c0.056-0.042,0.112-0.085,0.169-0.128c0.946-0.644,1.447-1.542,1.532-2.68
			c0.004-1.19,0.009-2.38,0.014-3.57c-0.001-0.104-0.001-0.207-0.002-0.31C110.941,29.225,110.941,27.671,110.941,26.117z
			 M110.776,6.071c-0.007-0.006-0.016-0.009-0.022-0.015c0.01-0.014,0.02-0.028,0.027-0.042
			C110.779,6.033,110.779,6.052,110.776,6.071z M95.077,29.979c-0.106-0.012-0.192,0.067-0.289,0.13
			c-0.815,0.534-2.434,0.391-3.128-0.249c0.001-0.007,0.003-0.011,0.004-0.018c0.163-0.292,0.168-0.611,0.161-0.932
			c0.416-1.652,0.626-3.343,0.942-5.014c0.05-0.266,0.049-0.443-0.311-0.438c-1.061,0.016-2.122,0.008-3.183,0.005
			c-0.247-0.001-0.371,0.098-0.411,0.353c-0.199,1.273-0.543,2.522-0.63,3.815l0,0c-0.188,0.241-0.128,0.528-0.148,0.8
			c0,0.002,0,0.004,0,0.006c-0.196,0.231-0.13,0.512-0.144,0.778c-0.021,0.042-0.025,0.086-0.014,0.131l0,0
			c-0.103,0.413-0.203,0.826-0.305,1.239c-0.621-0.36-1.304-0.174-1.956-0.187c-0.497-0.009-0.94-0.086-1.317-0.414
			c0.205-0.973,0.447-1.938,0.493-2.938c0.037-1.031,0.477-1.979,0.612-2.992c0.061-0.45,0.027-0.657-0.51-0.628
			c-0.85,0.045-1.703,0.002-2.556,0.017c-0.405,0.007-0.555-0.104-0.454-0.545c0.131-0.575,0.188-1.167,0.275-1.752
			c0.33-1.124,0.33-1.124,1.566-1.124c0.64,0,1.279-0.005,1.918,0.002c0.308,0.003,0.582-0.011,0.542-0.433
			c-0.001-0.001-0.001-0.002-0.002-0.002c0.195-0.233,0.135-0.515,0.146-0.782c0.059-0.624,0.117-1.247,0.321-1.845
			c0.299-0.543,0.184-0.794-0.481-0.781c-1.029,0.021-2.061-0.011-3.091-0.021c0.169-0.904,0.355-1.806,0.499-2.714
			c0.08-0.504,0.259-0.78,0.836-0.704c0.429,0.057,0.874,0.046,1.306,0.002c0.567-0.059,1.164,0.205,1.703-0.153
			c0.309-1.172,0.509-2.364,0.627-3.57c0.207-0.979,0.414-1.958,0.621-2.936c0.072,0,0.145,0,0.217,0
			c0.907,0.116,1.825-0.041,2.734,0.079c0.073,0.032,0.146,0.066,0.221,0.096c0.019,0.017,0.036,0.027,0.054,0.04
			c-0.007,0.127-0.016,0.253-0.037,0.377c-0.282,1.713-0.571,3.425-0.858,5.138c-0.293,0.917-0.283,0.935,0.599,0.938
			c0.847,0.003,1.694-0.022,2.54,0.009c0.491,0.019,0.651-0.183,0.585-0.636c0.013-0.178-0.011-0.368,0.043-0.534
			c0.484-1.493,0.654-3.046,0.885-4.587c0.044-0.027,0.082-0.06,0.107-0.108c0.107-0.212,0.019-0.494,0.233-0.669
			c0.061-0.039,0.127-0.066,0.194-0.089c0.812-0.052,1.629,0.015,2.442-0.028c0.146,0.001,0.291,0.002,0.437,0.003
			c0,0-0.001,0.001-0.001,0.002c-0.346,0.909-0.45,1.861-0.517,2.82c0.014,0.151,0.011,0.335,0.059,0.476
			c-0.165,0.675-0.283,1.358-0.328,2.055v0c-0.49,0.255-0.477,0.719-0.369,1.13c0.104,0.396,0.525,0.351,0.853,0.364
			c0.617,0.025,1.235,0.011,1.853,0.01c0.493,0,0.706,0.191,0.61,0.71c-0.135,0.733-0.244,1.472-0.366,2.209
			c-0.024,0.097-0.062,0.188-0.13,0.262c-0.215,0.012-0.43,0.022-0.645,0.037c-0.864,0.06-1.74-0.133-2.595,0.118
			c0,0-0.002,0-0.002,0c-0.126,0.068-0.124,0.176-0.109,0.289c-0.033,0.03-0.07,0.049-0.102,0.084
			c-0.092,0.168-0.117,0.347-0.087,0.535c0.018,0.064,0.037,0.126,0.062,0.181c-0.195,0.714-0.305,1.444-0.36,2.183
			c-0.037,0.105-0.181,0.206-0.014,0.318c0.021,0,0.041,0,0.062,0c-0.034,0.447,0.377,0.328,0.601,0.351
			c0.641,0.065,1.288,0.015,1.934,0.03c0.393,0.009,0.569,0.178,0.488,0.584c-0.051,0.253-0.122,0.505-0.138,0.761
			c-0.031,0.512-0.32,1.028-0.053,1.54c-0.01,0.004-0.02,0.008-0.03,0.013c-0.949,0.101-1.902,0.056-2.854,0.058
			c-0.645,0.001-1.016,0.271-1.115,0.917c-0.126,0.814-0.317,1.616-0.431,2.433c-0.038,0.278-0.075,0.559,0.092,0.806
			c-0.014,0.032-0.03,0.057-0.044,0.091C95.002,28.271,94.79,29.088,95.077,29.979z M87.982,29.777
			c-0.001,0.001-0.002,0.003-0.002,0.004C87.98,29.78,87.98,29.777,87.982,29.777C87.981,29.776,87.982,29.776,87.982,29.777z
			 M87.504,30.835c-0.02,0.004-0.039,0.007-0.06,0.009C87.464,30.841,87.483,30.838,87.504,30.835z M81.966,21.869
			c-0.005,0-0.009,0-0.014,0c0.001-0.001,0.002-0.002,0.002-0.003C81.959,21.867,81.961,21.868,81.966,21.869z M73.8,4.517
			L73.8,4.517L73.8,4.517L73.8,4.517z"/>
		<path style="fill-rule:evenodd;clip-rule:evenodd;fill:#41BEDC;" d="M93.794,16.209c-1.175,0.05-2.359-0.178-3.525,0.118
			c-0.294,0.802-0.402,1.639-0.462,2.485c-0.022,0.042-0.027,0.084-0.014,0.129c-0.19,0.241-0.136,0.528-0.148,0.802
			c0.004,0.105,0.02,0.242,0.135,0.243c1.199,0.006,2.403,0.181,3.596-0.088c0.311-0.797,0.392-1.638,0.473-2.479
			c0-0.001,0-0.002,0-0.003c0.196-0.231,0.133-0.512,0.145-0.778C94.115,16.406,94.095,16.197,93.794,16.209z"/>
	</g>
	<g>
		<path style="fill-rule:evenodd;clip-rule:evenodd;fill:#41BEDC;" d="M193.894,29.461c0-0.229,0-0.459,0-0.689v0c0,0,0,0,0,0
			c0.001-0.201,0.001-0.403,0.001-0.605c-0.001-0.202-0.001-0.404-0.001-0.606c0-1.419,0-2.838,0-4.257c0,0,0,0,0,0
			c0-1.089,0-2.179,0-3.268c0-0.331,0-0.662,0-0.992c0.009-0.024,0.009-0.048,0-0.073c0-0.152-0.001-0.305-0.001-0.458
			c-0.021-0.026-0.04-0.052-0.061-0.078c0,0,0,0,0,0s0,0,0,0c0.004-0.73-0.368-1.208-1.011-1.504
			c-0.45-0.155-0.906-0.248-1.39-0.247c-4.68,0.008-9.359,0.008-14.039-0.001c-0.44-0.001-0.836,0.111-1.223,0.294l0,0
			c-0.497,0.292-0.838,0.693-0.913,1.285c0,0,0,0.001,0,0.001c-0.101,0.149-0.062,0.315-0.059,0.477c0,2.28,0.001,4.561,0.001,6.841
			c-0.002,2.659-0.006,5.317-0.005,7.976c0,0.188,0.038,0.375,0.139,0.542c0.165,0.507,0.491,0.864,0.985,1.067
			c0.009-0.016,0.02-0.028,0.029-0.042c-0.006,0.012-0.014,0.026-0.029,0.042c0.297,0.206,0.636,0.218,0.979,0.218
			c2.87,0,5.74,0.003,8.61-0.006c0.27,0,0.397,0.066,0.473,0.344c0.165,0.607,0.38,1.2,0.575,1.799
			c0.191,0.788,0.453,1.552,0.737,2.41c0.475-0.837,0.901-1.589,1.328-2.342l0,0c0.375-0.626,0.77-1.242,1.116-1.883
			c0.146-0.269,0.318-0.327,0.599-0.331c0.524-0.007,1.055,0.083,1.575-0.057c0.286-0.009,0.527-0.128,0.744-0.307
			c0.027-0.021,0.056-0.042,0.083-0.062c0.463-0.315,0.708-0.754,0.75-1.311c0.002-0.582,0.004-1.165,0.007-1.747
			c-0.001-0.051-0.001-0.101-0.001-0.151C193.894,30.981,193.894,30.221,193.894,29.461z M193.812,19.654
			c-0.003-0.003-0.008-0.004-0.011-0.008c0.005-0.006,0.009-0.014,0.013-0.021C193.814,19.635,193.814,19.645,193.812,19.654z
			 M186.132,31.35c-0.052-0.005-0.095,0.033-0.142,0.064c-0.398,0.261-1.19,0.191-1.53-0.122c0.001-0.003,0.001-0.005,0.002-0.009
			c0.08-0.143,0.082-0.299,0.079-0.456c0.203-0.808,0.306-1.635,0.461-2.453c0.024-0.13,0.023-0.217-0.152-0.214
			c-0.519,0.007-1.038,0.004-1.557,0.002c-0.121,0-0.182,0.048-0.201,0.173c-0.098,0.623-0.266,1.234-0.309,1.867l0,0
			c-0.092,0.118-0.062,0.258-0.072,0.391c0,0.001,0,0.002,0,0.003c-0.096,0.113-0.063,0.25-0.07,0.381
			c-0.011,0.021-0.013,0.042-0.007,0.064l0,0c-0.05,0.202-0.1,0.404-0.149,0.606c-0.304-0.176-0.638-0.085-0.957-0.091
			c-0.242-0.004-0.46-0.042-0.644-0.203c0.1-0.476,0.219-0.948,0.241-1.437c0.018-0.504,0.232-0.968,0.299-1.464
			c0.03-0.22,0.014-0.321-0.249-0.307c-0.416,0.022-0.833,0.001-1.25,0.008c-0.198,0.003-0.271-0.051-0.223-0.267
			c0.064-0.281,0.092-0.571,0.135-0.857c0.161-0.549,0.161-0.549,0.767-0.549c0.312,0,0.626-0.002,0.938,0.001
			c0.15,0.001,0.284-0.006,0.265-0.212c0,0,0-0.001-0.001-0.001c0.096-0.114,0.066-0.252,0.071-0.383
			c0.029-0.305,0.058-0.61,0.157-0.902c0.146-0.266,0.09-0.389-0.235-0.382c-0.504,0.01-1.008-0.005-1.512-0.01
			c0.082-0.442,0.174-0.883,0.244-1.328c0.039-0.247,0.126-0.381,0.408-0.344c0.21,0.028,0.428,0.023,0.639,0.001
			c0.278-0.029,0.57,0.1,0.834-0.075c0.15-0.574,0.248-1.157,0.307-1.747c0.102-0.479,0.202-0.958,0.304-1.436
			c0.035,0,0.07,0,0.106,0c0.443,0.057,0.893-0.02,1.337,0.039c0.036,0.016,0.071,0.032,0.108,0.047
			c0.009,0.008,0.018,0.014,0.026,0.02c-0.004,0.062-0.008,0.124-0.019,0.185c-0.138,0.838-0.279,1.676-0.42,2.513
			c-0.143,0.449-0.139,0.458,0.293,0.459c0.414,0.001,0.829-0.011,1.243,0.004c0.24,0.009,0.318-0.089,0.286-0.311
			c0.006-0.087-0.006-0.18,0.021-0.261c0.237-0.73,0.32-1.49,0.433-2.244c0.021-0.013,0.041-0.029,0.053-0.053
			c0.053-0.104,0.01-0.242,0.114-0.327c0.03-0.019,0.062-0.033,0.096-0.043c0.396-0.025,0.797,0.007,1.194-0.014
			c0.071,0,0.143,0.001,0.214,0.001c0,0-0.001,0-0.001,0.001c-0.169,0.445-0.22,0.911-0.252,1.38
			c0.006,0.074,0.005,0.164,0.028,0.233c-0.081,0.33-0.139,0.664-0.16,1.005l0,0c-0.24,0.125-0.233,0.352-0.181,0.553
			c0.051,0.194,0.257,0.171,0.417,0.178c0.302,0.012,0.604,0.005,0.906,0.005c0.241,0,0.346,0.094,0.299,0.348
			c-0.066,0.359-0.12,0.72-0.18,1.081c-0.012,0.047-0.03,0.092-0.063,0.128c-0.105,0.006-0.21,0.011-0.315,0.018
			c-0.423,0.029-0.852-0.065-1.27,0.058h-0.001c-0.062,0.033-0.061,0.086-0.053,0.142c-0.017,0.015-0.035,0.024-0.05,0.042
			c-0.045,0.082-0.058,0.17-0.043,0.262c0.009,0.031,0.019,0.062,0.03,0.088c-0.096,0.35-0.148,0.707-0.176,1.068
			c-0.019,0.051-0.089,0.101-0.007,0.156c0.01,0,0.021,0,0.03,0c-0.017,0.218,0.185,0.16,0.294,0.171
			c0.313,0.032,0.63,0.007,0.946,0.015c0.192,0.005,0.278,0.087,0.238,0.286c-0.024,0.124-0.06,0.247-0.066,0.372
			c-0.016,0.251-0.157,0.503-0.026,0.753c-0.005,0.002-0.01,0.004-0.015,0.006c-0.465,0.049-0.931,0.027-1.396,0.028
			c-0.315,0-0.497,0.132-0.546,0.448c-0.062,0.398-0.155,0.791-0.211,1.19c-0.019,0.136-0.036,0.273,0.045,0.394
			c-0.006,0.016-0.015,0.028-0.021,0.044C186.095,30.515,185.991,30.915,186.132,31.35z M182.66,31.251c0,0,0,0.001,0,0.002
			C182.66,31.253,182.66,31.252,182.66,31.251C182.66,31.251,182.66,31.251,182.66,31.251z M182.427,31.77
			c-0.01,0.002-0.02,0.003-0.029,0.004C182.407,31.772,182.416,31.771,182.427,31.77z M179.717,27.383c-0.002,0-0.004,0-0.006,0
			c0,0,0-0.001,0-0.002C179.714,27.382,179.715,27.382,179.717,27.383z M175.722,18.893L175.722,18.893L175.722,18.893
			L175.722,18.893z"/>
		<path style="fill-rule:evenodd;clip-rule:evenodd;fill:#41BEDC;" d="M185.504,24.614c-0.574,0.024-1.154-0.087-1.725,0.058
			c-0.144,0.393-0.197,0.802-0.227,1.216c-0.011,0.021-0.013,0.042-0.006,0.063c-0.094,0.118-0.066,0.258-0.073,0.392
			c0.002,0.052,0.01,0.119,0.066,0.119c0.587,0.002,1.176,0.088,1.759-0.043c0.152-0.39,0.191-0.801,0.231-1.213
			c0,0,0-0.001,0-0.001c0.096-0.113,0.065-0.251,0.07-0.381C185.661,24.71,185.651,24.607,185.504,24.614z"/>
	</g>
	<g>
		<path style="fill-rule:evenodd;clip-rule:evenodd;fill:#41BEDC;" d="M183.343,255.306c0.001-0.31,0.001-0.619,0.001-0.929v0
			c0,0,0,0,0,0c0-0.271,0-0.543,0-0.815c0-0.272-0.001-0.544-0.001-0.817c0-1.912,0-3.824,0-5.736c0,0,0,0,0-0.001
			c0-1.468,0-2.936,0-4.404c0-0.446,0-0.892,0-1.337c0.013-0.032,0.013-0.065,0-0.097c0-0.206-0.001-0.411-0.001-0.617
			c-0.027-0.035-0.055-0.07-0.081-0.105c0,0,0,0-0.001,0c0.001,0,0.001,0,0.001,0c0.004-0.984-0.497-1.628-1.362-2.027
			c-0.606-0.208-1.221-0.333-1.872-0.332c-6.307,0.01-12.612,0.011-18.919-0.001c-0.594-0.001-1.125,0.149-1.646,0.397l0,0
			c-0.67,0.393-1.13,0.934-1.23,1.73c-0.001,0-0.001,0.001-0.001,0.002c-0.136,0.201-0.083,0.425-0.078,0.643
			c0,3.073,0,6.146,0,9.218c-0.002,3.583-0.007,7.166-0.006,10.749c0,0.253,0.052,0.505,0.188,0.729
			c0.222,0.683,0.662,1.164,1.327,1.438c0.012-0.021,0.026-0.038,0.039-0.057c-0.007,0.017-0.019,0.035-0.039,0.057
			c0.399,0.278,0.857,0.294,1.318,0.294c3.867,0,7.735,0.004,11.603-0.008c0.364-0.001,0.535,0.088,0.638,0.464
			c0.223,0.818,0.512,1.617,0.774,2.424c0.258,1.061,0.611,2.091,0.993,3.248c0.641-1.128,1.215-2.142,1.791-3.156c0,0,0,0,0,0
			c0.505-0.843,1.036-1.673,1.503-2.537c0.196-0.362,0.43-0.441,0.807-0.445c0.707-0.009,1.422,0.111,2.123-0.077
			c0.386-0.012,0.711-0.172,1.004-0.413c0.036-0.028,0.074-0.056,0.111-0.084c0.624-0.424,0.954-1.017,1.01-1.767
			c0.003-0.785,0.006-1.569,0.009-2.354c0-0.068,0-0.136-0.001-0.204C183.343,257.354,183.343,256.33,183.343,255.306z
			 M183.234,242.09c-0.005-0.004-0.011-0.006-0.016-0.01c0.007-0.009,0.014-0.018,0.019-0.028
			C183.236,242.064,183.236,242.078,183.234,242.09z M172.884,257.851c-0.07-0.007-0.127,0.044-0.19,0.086
			c-0.537,0.353-1.604,0.258-2.062-0.164c0-0.005,0.001-0.007,0.002-0.012c0.107-0.192,0.111-0.402,0.106-0.614
			c0.274-1.09,0.413-2.204,0.621-3.306c0.033-0.175,0.032-0.292-0.205-0.289c-0.698,0.01-1.398,0.006-2.098,0.004
			c-0.163-0.001-0.245,0.064-0.271,0.232c-0.131,0.84-0.357,1.663-0.415,2.516l0,0c-0.124,0.159-0.084,0.348-0.098,0.527
			c0,0.001,0,0.003,0,0.004c-0.13,0.152-0.086,0.338-0.095,0.513c-0.014,0.028-0.017,0.057-0.009,0.086l0,0
			c-0.067,0.272-0.134,0.545-0.201,0.817c-0.409-0.237-0.859-0.115-1.289-0.123c-0.328-0.006-0.62-0.057-0.869-0.273
			c0.136-0.641,0.295-1.278,0.325-1.937c0.024-0.679,0.314-1.304,0.404-1.972c0.039-0.296,0.018-0.433-0.337-0.414
			c-0.56,0.03-1.122,0.001-1.685,0.011c-0.267,0.005-0.365-0.069-0.299-0.359c0.086-0.379,0.123-0.77,0.182-1.155
			c0.217-0.74,0.217-0.74,1.032-0.74c0.422,0,0.844-0.003,1.265,0.001c0.202,0.002,0.384-0.007,0.357-0.286
			c-0.001,0-0.001-0.001-0.002-0.001c0.129-0.154,0.089-0.339,0.097-0.516c0.038-0.411,0.077-0.822,0.211-1.217
			c0.197-0.358,0.121-0.523-0.317-0.515c-0.678,0.014-1.358-0.007-2.037-0.014c0.111-0.596,0.234-1.19,0.329-1.79
			c0.053-0.333,0.17-0.514,0.551-0.464c0.282,0.038,0.576,0.031,0.86,0.001c0.375-0.039,0.768,0.135,1.123-0.101
			c0.204-0.773,0.336-1.559,0.414-2.354c0.136-0.646,0.272-1.291,0.409-1.936c0.048,0,0.095,0,0.143,0
			c0.599,0.076,1.203-0.027,1.803,0.052c0.049,0.021,0.096,0.043,0.146,0.063c0.013,0.011,0.023,0.018,0.035,0.026
			c-0.004,0.083-0.01,0.167-0.024,0.249c-0.186,1.13-0.376,2.258-0.565,3.387c-0.193,0.605-0.187,0.617,0.395,0.618
			c0.559,0.002,1.117-0.015,1.675,0.006c0.323,0.012,0.429-0.121,0.386-0.419c0.008-0.118-0.008-0.243,0.028-0.352
			c0.319-0.985,0.431-2.008,0.583-3.024c0.029-0.018,0.054-0.04,0.07-0.072c0.071-0.14,0.013-0.326,0.154-0.441
			c0.04-0.025,0.084-0.043,0.128-0.059c0.535-0.034,1.074,0.01,1.61-0.018c0.096,0,0.191,0.001,0.288,0.002
			c0,0-0.001,0.001-0.001,0.001c-0.228,0.599-0.297,1.227-0.341,1.859c0.009,0.1,0.008,0.221,0.039,0.313
			c-0.109,0.445-0.187,0.895-0.217,1.354v0c-0.323,0.168-0.313,0.474-0.243,0.745c0.068,0.261,0.347,0.231,0.562,0.24
			c0.406,0.017,0.814,0.007,1.221,0.007c0.325,0,0.466,0.126,0.402,0.468c-0.089,0.483-0.16,0.97-0.241,1.457
			c-0.016,0.064-0.04,0.124-0.086,0.173c-0.142,0.008-0.283,0.014-0.425,0.024c-0.569,0.04-1.146-0.088-1.71,0.078
			c0,0-0.002,0-0.002,0c-0.083,0.044-0.081,0.116-0.071,0.19c-0.022,0.02-0.047,0.033-0.067,0.056
			c-0.061,0.111-0.077,0.229-0.058,0.353c0.012,0.042,0.024,0.083,0.041,0.119c-0.128,0.471-0.2,0.952-0.237,1.439
			c-0.024,0.069-0.119,0.135-0.009,0.21c0.014,0,0.027,0,0.041,0c-0.022,0.294,0.249,0.216,0.396,0.231
			c0.422,0.043,0.849,0.01,1.274,0.02c0.259,0.006,0.375,0.118,0.322,0.385c-0.034,0.167-0.081,0.333-0.091,0.502
			c-0.021,0.338-0.212,0.678-0.035,1.015c-0.007,0.003-0.013,0.005-0.02,0.009c-0.626,0.066-1.255,0.037-1.882,0.038
			c-0.426,0.001-0.67,0.179-0.735,0.604c-0.083,0.537-0.21,1.065-0.284,1.604c-0.025,0.184-0.05,0.369,0.061,0.532
			c-0.009,0.021-0.021,0.038-0.029,0.06C172.835,256.725,172.695,257.264,172.884,257.851z M168.207,257.718
			c-0.001,0-0.002,0.002-0.002,0.003C168.205,257.72,168.205,257.719,168.207,257.718
			C168.206,257.718,168.207,257.718,168.207,257.718z M167.892,258.416c-0.013,0.003-0.026,0.005-0.04,0.006
			C167.865,258.42,167.878,258.418,167.892,258.416z M164.24,252.505c-0.003,0-0.006,0-0.009,0c0-0.001,0.001-0.001,0.001-0.002
			C164.235,252.503,164.237,252.504,164.24,252.505z M158.856,241.065L158.856,241.065L158.856,241.065L158.856,241.065z"/>
		<path style="fill-rule:evenodd;clip-rule:evenodd;fill:#41BEDC;" d="M172.038,248.774c-0.774,0.033-1.556-0.117-2.324,0.078
			c-0.193,0.529-0.265,1.081-0.305,1.638c-0.015,0.027-0.018,0.056-0.009,0.085c-0.125,0.159-0.09,0.348-0.098,0.528
			c0.002,0.07,0.013,0.16,0.089,0.16c0.79,0.004,1.584,0.119,2.37-0.058c0.205-0.526,0.259-1.08,0.312-1.634
			c0-0.001,0-0.001,0-0.002c0.13-0.152,0.088-0.337,0.096-0.513C172.25,248.903,172.236,248.766,172.038,248.774z"/>
	</g>
	<g>
		<path style="fill-rule:evenodd;clip-rule:evenodd;fill:#41BEDC;" d="M46.414,183.832c0.001-0.217,0.001-0.435,0.001-0.651l0,0l0,0
			c0-0.191,0-0.382,0-0.572c0-0.191-0.001-0.382-0.001-0.573c0-1.342,0-2.684,0-4.025c0,0,0,0,0-0.001c0-1.03,0-2.061,0-3.09
			c0-0.313,0-0.626,0-0.939c0.009-0.022,0.009-0.045,0-0.068c0-0.145-0.001-0.289-0.001-0.433c-0.019-0.024-0.038-0.049-0.057-0.074
			c0,0,0,0-0.001,0c0.001,0,0.001,0,0.001,0c0.003-0.69-0.349-1.143-0.956-1.423c-0.426-0.146-0.856-0.233-1.314-0.233
			c-4.426,0.007-8.852,0.008-13.277-0.001c-0.417-0.001-0.789,0.105-1.155,0.279l0,0c-0.471,0.276-0.793,0.656-0.864,1.215
			c0,0,0,0,0,0.001c-0.096,0.141-0.059,0.298-0.055,0.452c0,2.156,0,4.313,0,6.469c-0.002,2.515-0.005,5.029-0.004,7.544
			c0,0.178,0.036,0.354,0.131,0.512c0.156,0.479,0.465,0.817,0.932,1.009c0.008-0.015,0.019-0.026,0.027-0.04
			c-0.005,0.012-0.013,0.024-0.027,0.04c0.28,0.195,0.602,0.207,0.926,0.207c2.714,0,5.429,0.003,8.143-0.005
			c0.256-0.001,0.375,0.062,0.447,0.326c0.156,0.574,0.359,1.135,0.544,1.701c0.181,0.745,0.429,1.467,0.696,2.279
			c0.45-0.792,0.854-1.503,1.258-2.215c0,0,0,0,0,0c0.354-0.592,0.727-1.174,1.055-1.781c0.138-0.254,0.301-0.309,0.565-0.312
			c0.497-0.006,0.998,0.078,1.49-0.054c0.271-0.008,0.499-0.121,0.705-0.29c0.025-0.02,0.052-0.039,0.078-0.059
			c0.438-0.298,0.669-0.714,0.708-1.24c0.002-0.551,0.004-1.102,0.007-1.652c0-0.048,0-0.096-0.001-0.143
			C46.414,185.27,46.414,184.551,46.414,183.832z M46.338,174.557c-0.004-0.003-0.008-0.004-0.011-0.007
			c0.005-0.006,0.01-0.013,0.013-0.02C46.339,174.539,46.339,174.548,46.338,174.557z M39.073,185.619
			c-0.049-0.005-0.089,0.031-0.134,0.06c-0.377,0.248-1.126,0.181-1.446-0.115c0-0.003,0.001-0.005,0.001-0.008
			c0.076-0.135,0.078-0.282,0.075-0.431c0.192-0.765,0.29-1.547,0.436-2.32c0.023-0.123,0.022-0.205-0.144-0.202
			c-0.49,0.007-0.981,0.004-1.473,0.002c-0.114,0-0.172,0.045-0.19,0.163c-0.092,0.589-0.251,1.167-0.291,1.766l0,0
			c-0.087,0.111-0.059,0.244-0.068,0.37c0,0.001,0,0.002,0,0.003c-0.092,0.107-0.061,0.237-0.066,0.36
			c-0.01,0.02-0.012,0.04-0.007,0.061l0,0c-0.047,0.191-0.094,0.382-0.141,0.573c-0.287-0.167-0.604-0.081-0.905-0.086
			c-0.229-0.004-0.435-0.04-0.609-0.192c0.095-0.45,0.207-0.897,0.228-1.359c0.018-0.477,0.221-0.916,0.284-1.384
			c0.027-0.208,0.013-0.304-0.236-0.291c-0.393,0.021-0.788,0-1.183,0.008c-0.187,0.003-0.256-0.048-0.209-0.252
			c0.06-0.266,0.086-0.54,0.127-0.811c0.152-0.52,0.152-0.52,0.725-0.52c0.296,0,0.592-0.002,0.888,0
			c0.142,0.002,0.27-0.005,0.251-0.2c-0.001,0-0.001-0.001-0.002-0.001c0.091-0.108,0.062-0.238,0.068-0.362
			c0.026-0.289,0.054-0.577,0.147-0.854c0.139-0.251,0.085-0.368-0.223-0.361c-0.476,0.01-0.953-0.005-1.43-0.01
			c0.078-0.418,0.165-0.835,0.231-1.256c0.037-0.233,0.119-0.361,0.387-0.326c0.197,0.026,0.404,0.022,0.604,0.001
			c0.263-0.027,0.539,0.095,0.788-0.07c0.144-0.542,0.235-1.094,0.29-1.652c0.096-0.453,0.191-0.906,0.288-1.359
			c0.033,0,0.066,0,0.1,0c0.42,0.054,0.845-0.019,1.266,0.037c0.034,0.015,0.066,0.03,0.102,0.044
			c0.009,0.008,0.017,0.013,0.024,0.019c-0.002,0.059-0.007,0.117-0.017,0.174c-0.13,0.793-0.264,1.585-0.397,2.377
			c-0.135,0.424-0.131,0.433,0.277,0.434c0.393,0.001,0.784-0.01,1.176,0.004c0.227,0.009,0.301-0.084,0.271-0.294
			c0.005-0.083-0.006-0.17,0.02-0.247c0.225-0.691,0.303-1.409,0.409-2.123c0.021-0.013,0.038-0.028,0.05-0.05
			c0.05-0.098,0.009-0.229,0.108-0.31c0.027-0.018,0.059-0.03,0.09-0.041c0.375-0.024,0.754,0.007,1.13-0.013
			c0.067,0,0.134,0,0.202,0.001c0,0-0.001,0-0.001,0.001c-0.159,0.42-0.208,0.861-0.239,1.305c0.007,0.07,0.006,0.155,0.027,0.22
			c-0.076,0.312-0.131,0.628-0.151,0.951v0c-0.228,0.118-0.221,0.332-0.171,0.522c0.048,0.183,0.243,0.162,0.395,0.168
			c0.285,0.012,0.571,0.005,0.856,0.005c0.229,0,0.327,0.088,0.282,0.329c-0.062,0.339-0.112,0.681-0.169,1.022
			c-0.011,0.045-0.028,0.087-0.061,0.122c-0.099,0.005-0.198,0.01-0.298,0.017c-0.399,0.028-0.805-0.062-1.2,0.055
			c0,0-0.001,0-0.001,0c-0.059,0.031-0.057,0.082-0.05,0.133c-0.017,0.014-0.033,0.023-0.048,0.039
			c-0.042,0.078-0.054,0.161-0.04,0.248c0.008,0.029,0.017,0.058,0.028,0.083c-0.09,0.331-0.141,0.668-0.166,1.01
			c-0.018,0.049-0.084,0.095-0.007,0.147c0.01,0,0.02,0,0.029,0c-0.016,0.207,0.175,0.151,0.278,0.162
			c0.296,0.03,0.596,0.007,0.895,0.014c0.182,0.004,0.263,0.083,0.226,0.27c-0.023,0.117-0.057,0.233-0.063,0.352
			c-0.015,0.237-0.148,0.476-0.024,0.712c-0.005,0.002-0.009,0.004-0.014,0.006c-0.439,0.046-0.881,0.025-1.321,0.026
			c-0.299,0-0.47,0.125-0.516,0.424c-0.059,0.376-0.147,0.748-0.199,1.125c-0.019,0.129-0.035,0.259,0.042,0.374
			c-0.006,0.015-0.015,0.026-0.021,0.042C39.039,184.829,38.941,185.207,39.073,185.619z M35.791,185.525
			c0,0-0.001,0.001-0.001,0.002C35.79,185.527,35.79,185.526,35.791,185.525C35.791,185.525,35.791,185.525,35.791,185.525z
			 M35.57,186.015c-0.009,0.002-0.019,0.003-0.028,0.004C35.552,186.018,35.561,186.017,35.57,186.015z M33.008,181.867
			c-0.002,0-0.005,0-0.007,0c0-0.001,0.001-0.001,0.001-0.002C33.004,181.866,33.006,181.866,33.008,181.867z M29.229,173.838
			L29.229,173.838L29.229,173.838L29.229,173.838z"/>
		<path style="fill-rule:evenodd;clip-rule:evenodd;fill:#41BEDC;" d="M38.48,179.248c-0.544,0.023-1.092-0.082-1.632,0.055
			c-0.136,0.371-0.186,0.758-0.214,1.149c-0.01,0.02-0.012,0.039-0.006,0.06c-0.088,0.112-0.063,0.245-0.068,0.371
			c0.001,0.049,0.009,0.112,0.062,0.113c0.554,0.002,1.111,0.083,1.663-0.041c0.144-0.369,0.182-0.758,0.219-1.147
			c0,0,0-0.001,0-0.001c0.091-0.107,0.062-0.237,0.067-0.36C38.629,179.339,38.619,179.242,38.48,179.248z"/>
	</g>
</g>
</svg>
